<svg height="480pt" viewBox="-64 0 480 480" width="480pt" xmlns="http://www.w3.org/2000/svg"><path d="m16 24c.003906-4.417969 3.582031-7.996094 8-8h160c4.417969.003906 7.996094 3.582031 8 8v184h16v-184c-.015625-13.25-10.75-23.984375-24-24h-160c-13.25.015625-23.984375 10.75-24 24v320c.015625 13.25 10.75 23.984375 24 24h120v-16h-120c-4.417969-.003906-7.996094-3.582031-8-8v-56h128v-16h-128zm0 0"/><path d="m120 320c0 8.835938-7.164062 16-16 16s-16-7.164062-16-16 7.164062-16 16-16 16 7.164062 16 16zm0 0"/><path d="m40 312h24v16h-24zm0 0"/><path d="m88 48h32v16h-32zm0 0"/><path d="m344.96875 269.65625-38.625-38.625c-4.492188-4.515625-10.601562-7.046875-16.972656-7.03125h-105.371094c-13.25.015625-23.984375 10.75-24 24v208c.015625 13.25 10.75 23.984375 24 24h144c13.25-.015625 23.984375-10.75 24-24v-169.375c.015625-6.367188-2.515625-12.480469-7.03125-16.96875zm-40.96875-18.34375 20.6875 20.6875h-20.6875zm24 212.6875h-144c-4.417969-.003906-7.996094-3.582031-8-8v-208c.003906-4.417969 3.582031-7.996094 8-8h104v32c.011719 8.832031 7.167969 15.988281 16 16h32v168c-.003906 4.417969-3.582031 7.996094-8 8zm0 0"/><path d="m192 264h16v16h-16zm0 0"/><path d="m224 264h48v16h-48zm0 0"/><path d="m192 296h16v16h-16zm0 0"/><path d="m224 296h48v16h-48zm0 0"/><path d="m240 360v-16c-.011719-8.832031-7.167969-15.988281-16-16h-16c-8.832031.011719-15.988281 7.167969-16 16v16c.011719 8.832031 7.167969 15.988281 16 16h16c8.832031-.011719 15.988281-7.167969 16-16zm-32-16h16l.011719 16h-16.011719zm0 0"/><path d="m288 328h32v16h-32zm0 0"/><path d="m256 328h16v16h-16zm0 0"/><path d="m288 360h32v16h-32zm0 0"/><path d="m256 360h16v16h-16zm0 0"/><path d="m192 392h16v16h-16zm0 0"/><path d="m304 392h16v16h-16zm0 0"/><path d="m224 392h64v16h-64zm0 0"/><path d="m192 424h16v16h-16zm0 0"/><path d="m304 424h16v16h-16zm0 0"/><path d="m224 424h64v16h-64zm0 0"/><path d="m144 144v-8c-.011719-8.832031-7.167969-15.988281-16-16h-16v-16h-16v16h-16c-8.832031.011719-15.988281 7.167969-16 16v24c.011719 8.832031 7.167969 15.988281 16 16h16v24h-16v-8h-16v8c.011719 8.832031 7.167969 15.988281 16 16h16v16h16v-16h16c8.832031-.011719 15.988281-7.167969 16-16v-24c-.011719-8.832031-7.167969-15.988281-16-16h-16v-24h16v8zm-16 32v24h-16v-24zm-32-16h-16v-24h16zm0 0"/></svg>