<svg id="Layer_5" enable-background="new 0 0 64 64" height="512" viewBox="0 0 64 64" width="512" xmlns="http://www.w3.org/2000/svg"><g><path d="m52 31c4.963 0 9-4.038 9-9s-4.037-9-9-9-9 4.038-9 9 4.037 9 9 9zm-4-7h2v1h3c.552 0 1-.449 1-1s-.448-1-1-1h-2c-1.654 0-3-1.346-3-3s1.346-3 3-3v-2h2v2h3v3h-2v-1h-3c-.552 0-1 .449-1 1s.448 1 1 1h2c1.654 0 3 1.346 3 3s-1.346 3-3 3v2h-2v-2h-3z"/><path d="m16.62 25.638-.575 2.303c.462 1.235 1.631 2.059 2.955 2.059 1.325 0 2.494-.824 2.955-2.057l-.576-2.304c-.751.234-1.55.361-2.378.361-.829 0-1.628-.127-2.381-.362z"/><path d="m35 38.495c0-2.875-1.803-5.501-4.487-6.534l-6.969-2.681c-.887 1.654-2.617 2.72-4.544 2.72-1.926 0-3.656-1.065-4.543-2.72l-6.97 2.681c-2.684 1.032-4.487 3.658-4.487 6.534v2.505h32z"/><path d="m11 18v-4c-1.103 0-2 .897-2 2s.897 2 2 2z"/><path d="m11 12h.25c.215-.634.556-1.221 1.043-1.708.834-.833 1.942-1.292 3.121-1.292h7.172c1.179 0 2.287.459 3.121 1.292.487.487.828 1.074 1.043 1.708h.25c.591 0 1.148.137 1.654.368.226-1.162.346-2.344.346-3.53v-.117l-3.559-1.186 2.043-3.064-.246-.098c-2.276-.911-4.674-1.373-7.126-1.373h-3.064c-1.795 0-3.534.526-5.029 1.522-1.89 1.261-3.019 3.37-3.019 5.642 0 .744.13 1.487.371 2.191.499-.224 1.048-.355 1.629-.355z"/><path d="m27 14v4c1.103 0 2-.897 2-2s-.897-2-2-2z"/><path d="m25 18v-4.586c0-.645-.251-1.251-.707-1.707s-1.063-.707-1.707-.707h-7.172c-.645 0-1.251.251-1.707.708-.456.455-.707 1.061-.707 1.706v4.586c0 3.309 2.692 6 6.001 6 3.308 0 5.999-2.691 5.999-6z"/><path d="m21 52c0-4.962-4.037-9-9-9s-9 4.038-9 9 4.037 9 9 9 9-4.038 9-9zm-13 5v-3h2v1h3c.552 0 1-.449 1-1s-.448-1-1-1h-2c-1.654 0-3-1.346-3-3s1.346-3 3-3v-2h2v2h3v3h-2v-1h-3c-.552 0-1 .449-1 1s.448 1 1 1h2c1.654 0 3 1.346 3 3s-1.346 3-3 3v2h-2v-2z"/><path d="m63 46v-11h-11v2h7.586l-12.586 12.586-5-5-7.083 7.083-8.954-6.964-3.734 3.268c.268.681.469 1.394.597 2.134l-.001.001c.108.615.175 1.245.175 1.892 0 3.72-1.861 7.008-4.695 9h.008c-1.788 1.256-3.962 2-6.313 2h51v-2h-8v-16.586l6-6v7.586zm-38 15v-12.797l-.348.304 1.385-1.212.963.75v12.955zm6 0v-9.844l2 1.556v8.288zm6 0v-8.586l-1.917 1.917 3.917-3.917v10.586zm6 0v-12.586l2 2v10.586zm8 0h-2v-10.586l2-2z"/></g></svg>