<svg id="Capa_1" enable-background="new 0 0 512 512" height="512" viewBox="0 0 512 512" width="512" xmlns="http://www.w3.org/2000/svg"><g><path d="m251.69 289.367c1.406.422 2.858.633 4.31.633s2.904-.211 4.31-.633c32.235-9.67 59.893-29.054 79.982-56.054 20.089-27.001 30.708-59.062 30.708-92.716v-85.597c0-8.284-6.716-15-15-15-18.955 0-35.996-10.532-44.472-27.484l-2.111-4.223c-2.541-5.083-7.735-8.293-13.417-8.293h-80c-5.682 0-10.876 3.21-13.417 8.292l-2.111 4.222c-8.476 16.954-25.517 27.486-44.472 27.486-8.284 0-15 6.716-15 15v85.597c0 33.654 10.619 65.715 30.708 92.716 20.089 27 47.747 46.384 79.982 56.054zm-80.69-220.764c22.701-4.285 42.437-18.2 54.125-38.603h61.75c11.688 20.402 31.424 34.318 54.125 38.603v71.995c0 54.256-33.971 101.385-85 118.66-51.029-17.275-85-64.404-85-118.66z"/><path d="m241.858 188.284c3.839 0 7.678-1.464 10.606-4.394l56.568-56.568c5.858-5.858 5.858-15.355 0-21.213-5.857-5.858-15.355-5.858-21.213 0l-45.962 45.961-17.678-17.677c-5.857-5.858-15.355-5.858-21.213 0s-5.858 15.355 0 21.213l28.284 28.284c2.93 2.93 6.769 4.394 10.608 4.394z"/><path d="m453.162 352.709c11.637-11.752 18.838-27.903 18.838-45.709 0-35.841-29.159-65-65-65s-65 29.159-65 65c0 17.775 7.178 33.9 18.779 45.647-23.968 11.721-42.808 32.307-52.209 57.634-3.452-2.726-7.117-5.191-10.97-7.364 8.338-9.644 13.4-22.197 13.4-35.917 0-30.327-24.673-55-55-55s-55 24.673-55 55c0 13.72 5.062 26.273 13.4 35.917-3.853 2.172-7.518 4.638-10.97 7.364-9.401-25.327-28.242-45.913-52.209-57.634 11.601-11.747 18.779-27.872 18.779-45.647 0-35.841-29.159-65-65-65s-65 29.159-65 65c0 17.806 7.201 33.957 18.838 45.709-34.816 17.114-58.838 52.948-58.838 94.291v50c0 8.284 6.716 15 15 15h482c8.284 0 15-6.716 15-15v-50c0-41.343-24.022-77.177-58.838-94.291zm-81.162-45.709c0-19.299 15.701-35 35-35s35 15.701 35 35-15.701 35-35 35-35-15.701-35-35zm-141 60c0-13.785 11.215-25 25-25s25 11.215 25 25-11.215 25-25 25-25-11.215-25-25zm-161-60c0-19.299 15.701-35 35-35s35 15.701 35 35-15.701 35-35 35-35-15.701-35-35zm-40 140c0-41.355 33.645-75 75-75 38.898 0 70.974 29.436 74.644 67.696-5.528 11.27-8.644 23.928-8.644 37.304v5h-141zm281 35h-110v-5c0-30.327 24.673-55 55-55s55 24.673 55 55zm171 0h-141v-5c0-13.376-3.116-26.034-8.644-37.304 3.67-38.26 35.746-67.696 74.644-67.696 41.355 0 75 33.645 75 75z"/></g></svg>